<svg width="18" height="10" viewBox="0 0 18 10" fill="none" xmlns="http://www.w3.org/2000/svg">
<path d="M1.20833 8.96434L8.70533 1.65634L16.2023 8.96434C16.3363 9.09518 16.5161 9.16842 16.7033 9.16842C16.8906 9.16842 17.0704 9.09518 17.2043 8.96434C17.2692 8.9008 17.3207 8.82495 17.3559 8.74124C17.3911 8.65753 17.4092 8.56764 17.4092 8.47684C17.4092 8.38604 17.3911 8.29616 17.3559 8.21245C17.3207 8.12874 17.2692 8.05289 17.2043 7.98934L9.22883 0.213342C9.08877 0.0768216 8.90092 0.000415058 8.70533 0.000415041C8.50974 0.000415024 8.32189 0.0768215 8.18183 0.213342L0.206329 7.98784C0.141014 8.05143 0.0891 8.12747 0.0536538 8.21146C0.0182076 8.29544 -5.52445e-05 8.38568 -5.52525e-05 8.47684C-5.52605e-05 8.568 0.0182076 8.65824 0.0536538 8.74223C0.0890999 8.82621 0.141014 8.90225 0.206329 8.96584C0.340277 9.09668 0.52009 9.16992 0.707331 9.16992C0.894571 9.16992 1.07438 9.09668 1.20833 8.96584L1.20833 8.96434Z" fill="#7B3FF2"/>
</svg>
