<svg width="18" height="10" viewBox="0 0 18 10" fill="none" xmlns="http://www.w3.org/2000/svg">
<path d="M16.2008 0.20558L8.70385 7.51358L1.20685 0.20558C1.0729 0.0747459 0.89309 0.00149989 0.705849 0.00149989C0.518609 0.00149989 0.338796 0.0747459 0.20485 0.20558C0.139993 0.269126 0.088468 0.344974 0.053293 0.428684C0.018118 0.512393 0 0.60228 0 0.693079C0 0.783879 0.018118 0.873765 0.053293 0.957474C0.088468 1.04118 0.139993 1.11703 0.20485 1.18058L8.18035 8.95658C8.32041 9.0931 8.50826 9.16951 8.70385 9.16951C8.89944 9.16951 9.08729 9.0931 9.22735 8.95658L17.2029 1.18208C17.2682 1.11849 17.3201 1.04245 17.3555 0.958463C17.391 0.874477 17.4092 0.78424 17.4092 0.693079C17.4092 0.601918 17.391 0.511681 17.3555 0.427694C17.3201 0.343708 17.2682 0.267673 17.2029 0.204079C17.0689 0.0732453 16.8891 0 16.7018 0C16.5146 0 16.3348 0.0732453 16.2008 0.204079V0.20558Z" fill="#7B3FF2"/>
</svg>
