<svg width="13" height="16" viewBox="0 0 13 16" fill="none" xmlns="http://www.w3.org/2000/svg">
<path d="M12.4091 0C12.5691 0 12.7076 0.0565476 12.8246 0.169643C12.9415 0.282738 13 0.416667 13 0.571429V15.4286C13 15.5833 12.9415 15.7173 12.8246 15.8304C12.7076 15.9435 12.5691 16 12.4091 16H0.590909C0.430871 16 0.292377 15.9435 0.175426 15.8304C0.0584754 15.7173 0 15.5833 0 15.4286V0.571429C0 0.416667 0.0584754 0.282738 0.175426 0.169643C0.292377 0.0565476 0.430871 0 0.590909 0H12.4091ZM4.72727 2.57143V3.14286C4.72727 3.22619 4.75497 3.29464 4.81037 3.34821C4.86577 3.40179 4.93655 3.42857 5.02273 3.42857H5.61364C5.69981 3.42857 5.7706 3.40179 5.82599 3.34821C5.88139 3.29464 5.90909 3.22619 5.90909 3.14286V2.57143C5.90909 2.4881 5.88139 2.41964 5.82599 2.36607C5.7706 2.3125 5.69981 2.28571 5.61364 2.28571H5.02273C4.93655 2.28571 4.86577 2.3125 4.81037 2.36607C4.75497 2.41964 4.72727 2.4881 4.72727 2.57143ZM4.72727 4.85714V5.42857C4.72727 5.51191 4.75497 5.58036 4.81037 5.63393C4.86577 5.6875 4.93655 5.71429 5.02273 5.71429H5.61364C5.69981 5.71429 5.7706 5.6875 5.82599 5.63393C5.88139 5.58036 5.90909 5.51191 5.90909 5.42857V4.85714C5.90909 4.77381 5.88139 4.70536 5.82599 4.65179C5.7706 4.59821 5.69981 4.57143 5.61364 4.57143H5.02273C4.93655 4.57143 4.86577 4.59821 4.81037 4.65179C4.75497 4.70536 4.72727 4.77381 4.72727 4.85714ZM4.72727 7.14286V7.71429C4.72727 7.79762 4.75497 7.86607 4.81037 7.91964C4.86577 7.97321 4.93655 8 5.02273 8H5.61364C5.69981 8 5.7706 7.97321 5.82599 7.91964C5.88139 7.86607 5.90909 7.79762 5.90909 7.71429V7.14286C5.90909 7.05952 5.88139 6.99107 5.82599 6.9375C5.7706 6.88393 5.69981 6.85714 5.61364 6.85714H5.02273C4.93655 6.85714 4.86577 6.88393 4.81037 6.9375C4.75497 6.99107 4.72727 7.05952 4.72727 7.14286ZM4.72727 9.42857V10C4.72727 10.0833 4.75497 10.1518 4.81037 10.2054C4.86577 10.2589 4.93655 10.2857 5.02273 10.2857H5.61364C5.69981 10.2857 5.7706 10.2589 5.82599 10.2054C5.88139 10.1518 5.90909 10.0833 5.90909 10V9.42857C5.90909 9.34524 5.88139 9.27679 5.82599 9.22322C5.7706 9.16964 5.69981 9.14286 5.61364 9.14286H5.02273C4.93655 9.14286 4.86577 9.16964 4.81037 9.22322C4.75497 9.27679 4.72727 9.34524 4.72727 9.42857ZM3.54545 12.2857V11.7143C3.54545 11.631 3.51776 11.5625 3.46236 11.5089C3.40696 11.4554 3.33617 11.4286 3.25 11.4286H2.65909C2.57292 11.4286 2.50213 11.4554 2.44673 11.5089C2.39134 11.5625 2.36364 11.631 2.36364 11.7143V12.2857C2.36364 12.369 2.39134 12.4375 2.44673 12.4911C2.50213 12.5446 2.57292 12.5714 2.65909 12.5714H3.25C3.33617 12.5714 3.40696 12.5446 3.46236 12.4911C3.51776 12.4375 3.54545 12.369 3.54545 12.2857ZM3.54545 10V9.42857C3.54545 9.34524 3.51776 9.27679 3.46236 9.22322C3.40696 9.16964 3.33617 9.14286 3.25 9.14286H2.65909C2.57292 9.14286 2.50213 9.16964 2.44673 9.22322C2.39134 9.27679 2.36364 9.34524 2.36364 9.42857V10C2.36364 10.0833 2.39134 10.1518 2.44673 10.2054C2.50213 10.2589 2.57292 10.2857 2.65909 10.2857H3.25C3.33617 10.2857 3.40696 10.2589 3.46236 10.2054C3.51776 10.1518 3.54545 10.0833 3.54545 10ZM3.54545 7.71429V7.14286C3.54545 7.05952 3.51776 6.99107 3.46236 6.9375C3.40696 6.88393 3.33617 6.85714 3.25 6.85714H2.65909C2.57292 6.85714 2.50213 6.88393 2.44673 6.9375C2.39134 6.99107 2.36364 7.05952 2.36364 7.14286V7.71429C2.36364 7.79762 2.39134 7.86607 2.44673 7.91964C2.50213 7.97321 2.57292 8 2.65909 8H3.25C3.33617 8 3.40696 7.97321 3.46236 7.91964C3.51776 7.86607 3.54545 7.79762 3.54545 7.71429ZM3.54545 5.42857V4.85714C3.54545 4.77381 3.51776 4.70536 3.46236 4.65179C3.40696 4.59821 3.33617 4.57143 3.25 4.57143H2.65909C2.57292 4.57143 2.50213 4.59821 2.44673 4.65179C2.39134 4.70536 2.36364 4.77381 2.36364 4.85714V5.42857C2.36364 5.51191 2.39134 5.58036 2.44673 5.63393C2.50213 5.6875 2.57292 5.71429 2.65909 5.71429H3.25C3.33617 5.71429 3.40696 5.6875 3.46236 5.63393C3.51776 5.58036 3.54545 5.51191 3.54545 5.42857ZM3.54545 3.14286V2.57143C3.54545 2.4881 3.51776 2.41964 3.46236 2.36607C3.40696 2.3125 3.33617 2.28571 3.25 2.28571H2.65909C2.57292 2.28571 2.50213 2.3125 2.44673 2.36607C2.39134 2.41964 2.36364 2.4881 2.36364 2.57143V3.14286C2.36364 3.22619 2.39134 3.29464 2.44673 3.34821C2.50213 3.40179 2.57292 3.42857 2.65909 3.42857H3.25C3.33617 3.42857 3.40696 3.40179 3.46236 3.34821C3.51776 3.29464 3.54545 3.22619 3.54545 3.14286ZM8.27273 14.5714V12.8571C8.27273 12.7738 8.24503 12.7054 8.18963 12.6518C8.13423 12.5982 8.06345 12.5714 7.97727 12.5714H5.02273C4.93655 12.5714 4.86577 12.5982 4.81037 12.6518C4.75497 12.7054 4.72727 12.7738 4.72727 12.8571V14.5714C4.72727 14.6548 4.75497 14.7232 4.81037 14.7768C4.86577 14.8304 4.93655 14.8571 5.02273 14.8571H7.97727C8.06345 14.8571 8.13423 14.8304 8.18963 14.7768C8.24503 14.7232 8.27273 14.6548 8.27273 14.5714ZM8.27273 10V9.42857C8.27273 9.34524 8.24503 9.27679 8.18963 9.22322C8.13423 9.16964 8.06345 9.14286 7.97727 9.14286H7.38636C7.30019 9.14286 7.2294 9.16964 7.17401 9.22322C7.11861 9.27679 7.09091 9.34524 7.09091 9.42857V10C7.09091 10.0833 7.11861 10.1518 7.17401 10.2054C7.2294 10.2589 7.30019 10.2857 7.38636 10.2857H7.97727C8.06345 10.2857 8.13423 10.2589 8.18963 10.2054C8.24503 10.1518 8.27273 10.0833 8.27273 10ZM8.27273 7.71429V7.14286C8.27273 7.05952 8.24503 6.99107 8.18963 6.9375C8.13423 6.88393 8.06345 6.85714 7.97727 6.85714H7.38636C7.30019 6.85714 7.2294 6.88393 7.17401 6.9375C7.11861 6.99107 7.09091 7.05952 7.09091 7.14286V7.71429C7.09091 7.79762 7.11861 7.86607 7.17401 7.91964C7.2294 7.97321 7.30019 8 7.38636 8H7.97727C8.06345 8 8.13423 7.97321 8.18963 7.91964C8.24503 7.86607 8.27273 7.79762 8.27273 7.71429ZM8.27273 5.42857V4.85714C8.27273 4.77381 8.24503 4.70536 8.18963 4.65179C8.13423 4.59821 8.06345 4.57143 7.97727 4.57143H7.38636C7.30019 4.57143 7.2294 4.59821 7.17401 4.65179C7.11861 4.70536 7.09091 4.77381 7.09091 4.85714V5.42857C7.09091 5.51191 7.11861 5.58036 7.17401 5.63393C7.2294 5.6875 7.30019 5.71429 7.38636 5.71429H7.97727C8.06345 5.71429 8.13423 5.6875 8.18963 5.63393C8.24503 5.58036 8.27273 5.51191 8.27273 5.42857ZM8.27273 3.14286V2.57143C8.27273 2.4881 8.24503 2.41964 8.18963 2.36607C8.13423 2.3125 8.06345 2.28571 7.97727 2.28571H7.38636C7.30019 2.28571 7.2294 2.3125 7.17401 2.36607C7.11861 2.41964 7.09091 2.4881 7.09091 2.57143V3.14286C7.09091 3.22619 7.11861 3.29464 7.17401 3.34821C7.2294 3.40179 7.30019 3.42857 7.38636 3.42857H7.97727C8.06345 3.42857 8.13423 3.40179 8.18963 3.34821C8.24503 3.29464 8.27273 3.22619 8.27273 3.14286ZM10.6364 12.2857V11.7143C10.6364 11.631 10.6087 11.5625 10.5533 11.5089C10.4979 11.4554 10.4271 11.4286 10.3409 11.4286H9.75C9.66383 11.4286 9.59304 11.4554 9.53764 11.5089C9.48224 11.5625 9.45455 11.631 9.45455 11.7143V12.2857C9.45455 12.369 9.48224 12.4375 9.53764 12.4911C9.59304 12.5446 9.66383 12.5714 9.75 12.5714H10.3409C10.4271 12.5714 10.4979 12.5446 10.5533 12.4911C10.6087 12.4375 10.6364 12.369 10.6364 12.2857ZM10.6364 10V9.42857C10.6364 9.34524 10.6087 9.27679 10.5533 9.22322C10.4979 9.16964 10.4271 9.14286 10.3409 9.14286H9.75C9.66383 9.14286 9.59304 9.16964 9.53764 9.22322C9.48224 9.27679 9.45455 9.34524 9.45455 9.42857V10C9.45455 10.0833 9.48224 10.1518 9.53764 10.2054C9.59304 10.2589 9.66383 10.2857 9.75 10.2857H10.3409C10.4271 10.2857 10.4979 10.2589 10.5533 10.2054C10.6087 10.1518 10.6364 10.0833 10.6364 10ZM10.6364 7.71429V7.14286C10.6364 7.05952 10.6087 6.99107 10.5533 6.9375C10.4979 6.88393 10.4271 6.85714 10.3409 6.85714H9.75C9.66383 6.85714 9.59304 6.88393 9.53764 6.9375C9.48224 6.99107 9.45455 7.05952 9.45455 7.14286V7.71429C9.45455 7.79762 9.48224 7.86607 9.53764 7.91964C9.59304 7.97321 9.66383 8 9.75 8H10.3409C10.4271 8 10.4979 7.97321 10.5533 7.91964C10.6087 7.86607 10.6364 7.79762 10.6364 7.71429ZM10.6364 5.42857V4.85714C10.6364 4.77381 10.6087 4.70536 10.5533 4.65179C10.4979 4.59821 10.4271 4.57143 10.3409 4.57143H9.75C9.66383 4.57143 9.59304 4.59821 9.53764 4.65179C9.48224 4.70536 9.45455 4.77381 9.45455 4.85714V5.42857C9.45455 5.51191 9.48224 5.58036 9.53764 5.63393C9.59304 5.6875 9.66383 5.71429 9.75 5.71429H10.3409C10.4271 5.71429 10.4979 5.6875 10.5533 5.63393C10.6087 5.58036 10.6364 5.51191 10.6364 5.42857ZM10.6364 3.14286V2.57143C10.6364 2.4881 10.6087 2.41964 10.5533 2.36607C10.4979 2.3125 10.4271 2.28571 10.3409 2.28571H9.75C9.66383 2.28571 9.59304 2.3125 9.53764 2.36607C9.48224 2.41964 9.45455 2.4881 9.45455 2.57143V3.14286C9.45455 3.22619 9.48224 3.29464 9.53764 3.34821C9.59304 3.40179 9.66383 3.42857 9.75 3.42857H10.3409C10.4271 3.42857 10.4979 3.40179 10.5533 3.34821C10.6087 3.29464 10.6364 3.22619 10.6364 3.14286Z" fill="#7B3FF2"/>
</svg>
