<svg width="15" height="19" viewBox="0 0 15 19" fill="none" xmlns="http://www.w3.org/2000/svg">
<path d="M7.5 0C5.5116 0.00233461 3.60531 0.789498 2.1993 2.18882C0.793282 3.58814 0.00235375 5.48535 7.97923e-06 7.46429C-0.00237354 9.08147 0.528403 10.6548 1.51092 11.9429C1.51092 11.9429 1.71546 12.2109 1.74887 12.2496L7.5 19L13.2539 12.2462C13.2839 12.2102 13.4891 11.9429 13.4891 11.9429L13.4898 11.9408C14.4718 10.6533 15.0023 9.08073 15 7.46429C14.9976 5.48535 14.2067 3.58814 12.8007 2.18882C11.3947 0.789498 9.4884 0.00233461 7.5 0ZM7.5 10.1786C6.9606 10.1786 6.43331 10.0194 5.98481 9.72113C5.53631 9.42288 5.18675 8.99897 4.98033 8.503C4.77391 8.00703 4.7199 7.46127 4.82513 6.93475C4.93037 6.40823 5.19011 5.9246 5.57153 5.545C5.95294 5.1654 6.4389 4.90689 6.96794 4.80215C7.49697 4.69742 8.04534 4.75117 8.54368 4.95661C9.04202 5.16205 9.46797 5.50995 9.76764 5.95631C10.0673 6.40267 10.2273 6.92745 10.2273 7.46429C10.2264 8.18388 9.93874 8.87375 9.42747 9.38258C8.91621 9.89142 8.22304 10.1777 7.5 10.1786Z" fill="#7B3FF2"/>
</svg>
